<?xml version="1.0" encoding="utf-8"?>
<!-- Generator: Adobe Illustrator 27.6.1, SVG Export Plug-In . SVG Version: 6.00 Build 0)  -->
<svg version="1.1" id="Layer_1" xmlns="http://www.w3.org/2000/svg" xmlns:xlink="http://www.w3.org/1999/xlink" x="0px" y="0px"
	 viewBox="0 0 256 256" style="enable-background:new 0 0 256 256;" xml:space="preserve">
<style type="text/css">
	.st0{display:none;}
	.st1{display:inline;}
	.st2{fill:url(#SVGID_1_);}
	.st3{fill:url(#SVGID_00000082368362245729384240000005608917369112019622_);}
</style>
<g>
	<g class="st0">
		<g class="st1">
			<linearGradient id="SVGID_1_" gradientUnits="userSpaceOnUse" x1="57.5935" y1="126.7777" x2="193.7695" y2="126.7777">
				<stop  offset="0" style="stop-color:#D95B1A"/>
				<stop  offset="0.0912" style="stop-color:#DF6B16"/>
				<stop  offset="0.2475" style="stop-color:#E87F10"/>
				<stop  offset="0.4255" style="stop-color:#EE8D0C"/>
				<stop  offset="0.6412" style="stop-color:#F1950A"/>
				<stop  offset="1" style="stop-color:#F29809"/>
			</linearGradient>
			<path class="st2" d="M57.59,29.2c8.35,0,16.7,0,25.05,0c12.21,0,24.42,0,36.63,0c4.78,0,9.53-0.02,14.29,0.6
				c-1.11-0.15-2.22-0.3-3.32-0.45c6.02,0.82,11.89,2.43,17.49,4.79c-1-0.42-1.99-0.84-2.99-1.26c5.3,2.27,10.29,5.19,14.86,8.71
				c-0.84-0.65-1.69-1.3-2.53-1.95c4.37,3.41,8.3,7.33,11.69,11.71c-0.65-0.84-1.3-1.69-1.95-2.53c3.36,4.39,6.15,9.17,8.31,14.26
				c-0.42-1-0.84-1.99-1.26-2.99c2.36,5.65,3.96,11.56,4.78,17.62c-0.15-1.11-0.3-2.22-0.45-3.32c0.77,6,0.76,12.06-0.04,18.06
				c0.15-1.11,0.3-2.22,0.45-3.32c-0.84,6.07-2.47,11.98-4.85,17.62c0.42-1,0.84-1.99,1.26-2.99c-2.25,5.24-5.11,10.19-8.6,14.7
				c0.65-0.84,1.3-1.69,1.95-2.53c-3.39,4.34-7.31,8.23-11.67,11.61c0.84-0.65,1.69-1.3,2.53-1.95c-4.55,3.48-9.51,6.36-14.78,8.61
				c1-0.42,1.99-0.84,2.99-1.26c-5.56,2.33-11.38,3.92-17.34,4.75c1.11-0.15,2.22-0.3,3.32-0.45c-8.39,1.12-17.02,0.62-25.46,0.63
				c-7.05,0.01-14.08,1.33-20.3,4.75c-5.83,3.21-10.8,8.62-13.58,14.65c-1.52,3.3-2.84,6.66-3.67,10.19
				c-0.9,3.82-1.39,7.74-1.79,11.64c-0.51,4.91-0.61,9.86-0.61,14.8c0,7.09,0,14.17,0,21.26c0,7.1-0.06,14.19,0,21.29
				c0,0.13,0,0.26,0,0.39c0,3.21,1.39,6.57,3.66,8.84c2.17,2.17,5.73,3.8,8.84,3.66c3.23-0.14,6.59-1.21,8.84-3.66
				c2.25-2.45,3.66-5.45,3.66-8.84c0-6.52,0-13.04,0-19.56c0-7.74,0-15.49,0-23.23c0-5.82,0.14-11.65,0.9-17.42
				c-0.15,1.11-0.3,2.22-0.45,3.32c0.56-4.13,1.44-8.23,3.05-12.09c-0.42,1-0.84,1.99-1.26,2.99c0.86-2.02,1.91-3.94,3.24-5.69
				c-0.65,0.84-1.3,1.69-1.95,2.53c1.1-1.42,2.35-2.69,3.77-3.8c-0.84,0.65-1.69,1.3-2.53,1.95c1.35-1.02,2.81-1.86,4.37-2.54
				c-1,0.42-1.99,0.84-2.99,1.26c2.2-0.93,4.51-1.5,6.87-1.83c-1.11,0.15-2.22,0.3-3.32,0.45c3.39-0.43,6.83-0.31,10.24-0.31
				c3.59,0,7.18,0,10.77,0c13.98-0.01,27.87-3.54,40.07-10.38c12.91-7.24,23.93-18.44,30.7-31.62c3.93-7.65,6.89-15.91,8.12-24.44
				c0.7-4.83,1.24-9.63,1.14-14.51c-0.1-4.98-0.72-9.99-1.66-14.87c-2.89-15.01-10.62-29.27-21.51-39.99
				c-10.17-10.01-23.27-17.34-37.17-20.61c-7.58-1.78-15.26-2.25-22.99-2.25c-6.91,0-13.81,0-20.72,0c-8.47,0-16.95,0-25.42,0
				c-5.29,0-10.59,0-15.88,0c-0.27,0-0.54,0-0.8,0c-3.21,0-6.57,1.39-8.84,3.66c-2.17,2.17-3.8,5.73-3.66,8.84
				c0.14,3.23,1.21,6.59,3.66,8.84C51.2,27.79,54.21,29.2,57.59,29.2L57.59,29.2z"/>
		</g>
	</g>
	
		<linearGradient id="SVGID_00000036233925143439678250000011150516459247807911_" gradientUnits="userSpaceOnUse" x1="156.3418" y1="218.2633" x2="198.4065" y2="218.2633">
		<stop  offset="0" style="stop-color:#D95B1A"/>
		<stop  offset="0.0912" style="stop-color:#DF6B16"/>
		<stop  offset="0.2475" style="stop-color:#E87F10"/>
		<stop  offset="0.4255" style="stop-color:#EE8D0C"/>
		<stop  offset="0.6412" style="stop-color:#F1950A"/>
		<stop  offset="1" style="stop-color:#F29809"/>
	</linearGradient>
	<circle style="fill:url(#SVGID_00000036233925143439678250000011150516459247807911_);" cx="177.37" cy="218.26" r="21.03"/>
</g>
</svg>
